<?xml version="1.0" encoding="utf-8"?>
<!-- Svg Vector Icons : http://www.onlinewebfonts.com/icon -->
<!DOCTYPE svg PUBLIC "-//W3C//DTD SVG 1.1//EN" "http://www.w3.org/Graphics/SVG/1.1/DTD/svg11.dtd">
<svg version="1.1" xmlns="http://www.w3.org/2000/svg" xmlns:xlink="http://www.w3.org/1999/xlink" x="0px" y="0px" viewBox="0 0 1000 1000" enable-background="new 0 0 1000 1000" xml:space="preserve">
<metadata> Svg Vector Icons : http://www.onlinewebfonts.com/icon </metadata>
<g><g><path d="M973.1,867.8L704.4,599.7c2.4-3.6,4.2-9.7,6-17.5c28.4-47.7,45.9-99.6,51.3-154.6c1.2-12.7,1.8-26,1.8-38.6c0-41.7-7-83.4-21.1-124.4c-18.4-53.2-48.2-100.3-88.8-141.3c-144.8-146.2-388.6-145.9-533.1,0C72.6,171.9,39.9,228.5,22.8,293c-17.3,65.3-16.9,129.2,0,193.8c16.9,64.6,49.1,121.2,97.8,169.7c72.6,72.3,167.8,109.9,266.2,109.9c75.5,0,144.1-21.8,207.7-61.6l9.7-6L874.1,968c10.3,10.3,21.1,16.3,31.4,17.5c2.4,0.6,4.2,0.7,6,0.6c7.3-0.5,13.9-2.3,19.3-5.4c7.3-4.2,15.1-10.3,23.6-18.7l12.1-12.1c8.4-8.4,14.6-16.3,18.7-23.5c3.1-5.4,4.8-12.7,4.8-21.7v-4.8C990,889.5,983.7,878.3,973.1,867.8z M686.3,469.9c-14.2,53.1-41,99.6-80.9,139.5c-58,58-135.8,90.6-218.5,90.6c-81.5,0-158.9-33.1-219.2-90.6c-118.4-112.8-117.9-323.8,0-437.7c59.6-57.5,137.1-91.2,219.2-91.2c86.3,0,158.4,30.6,218.5,91.2c39.4,39.7,67,85.7,80.9,138.9S700.5,416.7,686.3,469.9z"/></g><g></g><g></g><g></g><g></g><g></g><g></g><g></g><g></g><g></g><g></g><g></g><g></g><g></g><g></g><g></g></g>
</svg>